# xmcd CD database file
#
# Track frame offsets:
#	150
#	16940
#	39385
#	67567
#	87745
#	108780
#	132112
#	152930
#	171287
#	203920
#	220090
#
# Disc length: 3220 seconds
#
# Revision: 0
# Processed by: cddbd v1.4PL0 Copyright (c) Steve Scherf et al.
# Submitted via: CdAid 2001.05.15.01
#
DISCID=8b0c920b
DTITLE=Luther "Guitar Junior" Johnson and The Magic Rockers - Got To Find a Way
DYEAR=1900
DGENRE=
TTITLE0=On Your Way Fishin'
TTITLE1=Got To Find a Way
TTITLE2=Luther's Blues
TTITLE3=Home Alone
TTITLE4=You Ought To Be Ashamed
TTITLE5=So Mean to Me
TTITLE6=I Pity the Fool
TTITLE7=Just Like Mama Said
TTITLE8=I Gotta Move Out of My Neighborhood
TTITLE9=I Got the Blues
TTITLE10=Talkin' on My Phone
EXTD=
EXTT0=
EXTT1=
EXTT2=
EXTT3=
EXTT4=
EXTT5=
EXTT6=
EXTT7=
EXTT8=
EXTT9=
EXTT10=
PLAYORDER=
